<svg xmlns="http://www.w3.org/2000/svg" viewBox="0 0 234.01 311.2"><defs><style>.cls-1{fill:#5e646c;}.cls-2{fill:#f22430;}.cls-3{fill:#4ad9d9;}.cls-4{fill:#ffcb05;}.cls-5{fill:#e9f1df;}</style></defs><title>WanderSpace-LogoV6-3</title><g id="Layer_2" data-name="Layer 2"><g id="Layer_3" data-name="Layer 3"><g id="WanderSpace-LogoV6-4"><g id="WanderSpace-LogoV6-3"><path class="cls-1" d="M87.47,94a225.5,225.5,0,0,1,40.29-12.32V3.62c-.28.43-.58.9-.9,1.42l-39,62.69L70,1.05h-.1V103.11A115.45,115.45,0,0,1,87.47,94Z"/><path class="cls-1" d="M78.49,138.18c-3.13-.52-6-1.12-8.57-1.8v32.18c.69.05,1.38.08,2.08.12a30,30,0,0,0,27.09-14.17l8-12.9Q90.07,140.07,78.49,138.18Z"/><path class="cls-1" d="M90.44,110.79q-8.22,9,3.24,12.85,7.32,2.48,21.91,4.24l11.85-19.13.32.55V92.54c-1.59.39-3.15.8-4.67,1.24Q100.05,100.29,90.44,110.79Z"/><path class="cls-2" d="M167.13,157.76c5.63-3,7-5.95,4.2-8.13s-6.39-2.45-14.26-3.56c-2.56-.36-5.46-.72-8.69-1.06l9.1,15.76A49,49,0,0,0,167.13,157.76Z"/><path class="cls-2" d="M127.76,92.54V109.3l12,20.77q27.62,2.16,43.23,4.3l.82.12V85.84c-1.88,0-3.8.1-5.79.18Q149.29,87.13,127.76,92.54Z"/><path class="cls-2" d="M133.61,80.48a353.77,353.77,0,0,1,50.19-6.06V30.32L174,67,137.7,5q-3-5-5-5a4,4,0,0,0-2.92.94,16,16,0,0,0-2,2.68V81.69Q130.64,81.06,133.61,80.48Z"/><path class="cls-2" d="M176.9,176.79c-2.67,1.11-5.46,2.17-8.32,3.19l2.51,4.36q5.67,9.78,12.71,10.67V173.7Q180.53,175.29,176.9,176.79Z"/><path class="cls-3" d="M69.92,168.56V136.38q-10.12-2.67-14.79-7.09-6.43-6.12,3.33-16.77a59,59,0,0,1,11.46-9.41V1.05H0l49.94,165.5q6.36.75,12.92,1.43C65.18,168.22,67.54,168.41,69.92,168.56Z"/><path class="cls-4" d="M183.8,195a10.11,10.11,0,0,0,1.45.11q7.92,0,11.23-11.72l6.09-21.77A78.43,78.43,0,0,1,183.8,173.7Z"/><path class="cls-4" d="M188.87,74.17a298.87,298.87,0,0,1,37.95.71l5.6-20A42.39,42.39,0,0,0,191.6,1.05h0l-7.8,29.27v44.1C185.49,74.33,187.17,74.24,188.87,74.17Z"/><path class="cls-4" d="M183.8,85.83v48.66q16.47,2.38,23.81,8l.26.21,15-53.73C212.19,86.09,199.34,85.55,183.8,85.83Z"/><path class="cls-5" d="M26.25,226.13h5.66l4.18,22.6h1.06l5-22H48.1l5,22h1.06l4.12-22.6H64l-5.61,27.76H49.26l-4.12-19-4.13,19H31.86Z"/><path class="cls-5" d="M93.8,234.68v12.66a2.7,2.7,0,0,0,.6,1.81,2.92,2.92,0,0,0,1.72.74L96,254.5q-4.54,0-7-2.05a19.32,19.32,0,0,1-8.52,2.05q-7.87,0-7.88-8.83c0-2.81.72-4.85,2.14-6.1s3.63-2,6.59-2.28l6.82-.61v-2a4.25,4.25,0,0,0-.92-3.11,3.82,3.82,0,0,0-2.73-.89q-3.37,0-8.46.44l-1.69.12L74.07,227a43.93,43.93,0,0,1,10.6-1.44q4.85,0,7,2.19C93.08,229.17,93.8,231.5,93.8,234.68ZM82,241.57c-2.44.22-3.65,1.61-3.65,4.16s1.07,3.83,3.22,3.83a19.29,19.29,0,0,0,5.61-.89l1-.33V241Z"/><path class="cls-5" d="M112.09,253.89h-5.76V226.13H112v1.72a14.19,14.19,0,0,1,7.3-2.33c3.53,0,5.93,1,7.22,3.13s1.93,5.55,1.93,10.36v14.88h-5.71V239.18q0-4.5-.93-6.39c-.61-1.26-1.88-1.89-3.78-1.89a12.53,12.53,0,0,0-5.18,1.11l-.8.34Z"/><path class="cls-5" d="M162.08,214.57v39.32h-5.72v-1.44a15.23,15.23,0,0,1-7.08,2.05q-5.19,0-7.59-3.27t-2.41-11q0-7.71,2.67-11.22t8.33-3.49a39.43,39.43,0,0,1,6,.72V214.57Zm-6.67,33.55.9-.39V231.29a34.13,34.13,0,0,0-5.87-.55q-5.34,0-5.34,9.32,0,5.12,1.24,7.09a4.32,4.32,0,0,0,3.94,2A13.47,13.47,0,0,0,155.41,248.12Z"/><path class="cls-5" d="M193.18,248.9l1.48-.17.1,4.5a52.31,52.31,0,0,1-10.68,1.27c-3.91,0-6.73-1.12-8.44-3.38s-2.56-5.87-2.56-10.83q0-14.78,11.48-14.77,11.1,0,11.1,12.71l-.37,4.33H178.9a7.89,7.89,0,0,0,1.42,5.06q1.38,1.6,5.13,1.61C188,249.23,190.53,249.12,193.18,248.9Zm-3.18-11q0-4.11-1.24-5.75c-.83-1.09-2.23-1.64-4.2-1.64a5.15,5.15,0,0,0-4.32,1.73q-1.34,1.71-1.4,5.66Z"/><path class="cls-5" d="M206.5,253.89V226.13h5.72v3.33a24.31,24.31,0,0,1,9-3.94v6a35.91,35.91,0,0,0-7.78,2.44l-1.16.5v19.38Z"/><path class="cls-5" d="M41.06,269.68q-10.64,0-10.64,7.72,0,4.53,2.41,6.1t9.46,2.89q7,1.31,10.05,3.64c2,1.55,3,4.14,3,7.79q0,7-3.67,10.14t-10.74,3.11a94.19,94.19,0,0,1-12-.88l-2.38-.31.47-3.33a128.81,128.81,0,0,0,14,1.07q5,0,7.54-2.3t2.58-6.72q0-4.43-2.28-6c-1.52-1.07-3.95-1.89-7.28-2.48a63.7,63.7,0,0,1-7.3-1.6A16.59,16.59,0,0,1,30,286.42,7.47,7.47,0,0,1,27.11,283a14.16,14.16,0,0,1-.86-5.3q0-11.45,14.55-11.44a96.69,96.69,0,0,1,11.37.88l2.18.32L54,270.75A126.24,126.24,0,0,0,41.06,269.68Z"/><path class="cls-5" d="M83.71,295.37H71v15.2h-4.1V266.92H83.71q7.33,0,10.81,3.39T98,280.73Q98,295.37,83.71,295.37ZM71,291.91H83.71q10,0,10.05-11.18c0-3.56-.79-6.17-2.38-7.85s-4.14-2.51-7.67-2.51H71Z"/><path class="cls-5" d="M106.13,310.57l13.22-43.65h9.59l13.15,43.65h-4l-3.7-12.06h-20.5l-3.63,12.06Zm16.2-40.26-7.48,24.74h18.52l-7.47-24.74Z"/><path class="cls-5" d="M180.31,309.88a62.66,62.66,0,0,1-11.63,1.32,25.31,25.31,0,0,1-7.77-1,12.7,12.7,0,0,1-4.8-2.73,12.07,12.07,0,0,1-2.91-4.59q-2-5.14-2-14,0-14.19,4.76-18.78,3.9-3.83,11.9-3.83a67.28,67.28,0,0,1,12.43,1.32l-.2,3.39a67.44,67.44,0,0,0-11-1.2,19.35,19.35,0,0,0-6.44.85,10.36,10.36,0,0,0-3.71,2.26,9,9,0,0,0-2.14,3.93,36.37,36.37,0,0,0-1.33,10.68,71.65,71.65,0,0,0,.47,9.57,18,18,0,0,0,1.78,5.75,7.82,7.82,0,0,0,3.9,3.71,18.3,18.3,0,0,0,7.14,1.13,67.67,67.67,0,0,0,11.37-1.2Z"/><path class="cls-5" d="M193.64,310.57V266.92h27.57v3.51H197.74v16.21h19.5v3.45h-19.5v17h23.47v3.46Z"/></g></g></g></g></svg>